# xmcd
#
# Track frame offsets:
#	150
#	19165
#	42097
#	59947
#	75245
#	91730
#	112367
#	132370
#	148425
#	166742
#	181367
#	199697
#
# Disc length: 2870 seconds
#
# Revision: 2
# Processed by: cddbd v1.5.2PL0 Copyright (c) Steve Scherf et al.
# Submitted via: audiograbber 1.83.01
#
DISCID=a90b340c
DTITLE=Mario Delon - Öfter als immer (LC 8282)
DYEAR=1900
DGENRE=Deutsch
TTITLE0=Die Sonne und du
TTITLE1=Wenn die Sonne schlafen geht
TTITLE2=Öfter als immer
TTITLE3=Miss One Lady
TTITLE4=Küss mich mit geschloss'nen Augen
TTITLE5=Eis und Lava
TTITLE6=Sag mir deinen Namen
TTITLE7=Wahnsinn
TTITLE8=Ich will dich
TTITLE9=Ganz oder gar nicht
TTITLE10=Trag die Sonn auf deinen Lippen (mit Katja)
TTITLE11=Einer für alle (mit Katja)
EXTD=
EXTT0=
EXTT1=
EXTT2=
EXTT3=
EXTT4=
EXTT5=
EXTT6=
EXTT7=
EXTT8=
EXTT9=
EXTT10=
EXTT11=
PLAYORDER=
